PathFileType	4	(X/Y/Z)	/Users/visionmauri/1_5_1_f_1_Sports2D/1_5_1_f_1_Sports2D_px_person00.trc
DataRate	CameraRate	NumFrames	NumMarkers	Units	OrigDataRate	OrigDataStartFrame	OrigNumFrames
30.0	30.0	9	22	m	30.0	324	432
Frame#	Time	Hip			RHip			RKnee			RAnkle			RBigToe			RSmallToe			RHeel			LHip			LKnee			LAnkle			LBigToe			LSmallToe			LHeel			Neck			Head			Nose			RShoulder			RElbow			RWrist			LShoulder			LElbow			LWrist			
		X1	Y1	Z1	X2	Y2	Z2	X3	Y3	Z3	X4	Y4	Z4	X5	Y5	Z5	X6	Y6	Z6	X7	Y7	Z7	X8	Y8	Z8	X9	Y9	Z9	X10	Y10	Z10	X11	Y11	Z11	X12	Y12	Z12	X13	Y13	Z13	X14	Y14	Z14	X15	Y15	Z15	X16	Y16	Z16	X17	Y17	Z17	X18	Y18	Z18	X19	Y19	Z19	X20	Y20	Z20	X21	Y21	Z21	X22	Y22	Z22
324	10.825058004640372	535.1607920007644	849.8067264997514	0.0	476.8343938009426	852.9034920598219	0.0	476.0184431331983	1063.996195445121	0.0	485.578065568154	1290.4416480787684	0.0	493.76168749682404	1368.0254015887435	0.0	459.6910045561522	1362.1647297123789	0.0	492.86706508207914	1322.5515453823882	0.0	590.9820514114588	855.1887842621381	0.0	582.2992388504076	1048.1864726805554	0.0	578.7134907529792	1256.1953393768872	0.0	568.1573535315547	1334.379632978083	0.0	595.7507540975926	1324.958444221077	0.0	574.0628229891704	1286.2000627910265	0.0	556.2210180834928	545.8419240197828	0.0	566.664754643273	409.6803353576698	0.0	559.9480382607251	525.4935646992224	0.0	451.10158172473473	566.4366199906651	0.0	408.33972128822757	701.3296406397644	0.0	364.8623945238459	815.3235141444446	0.0	662.075774665765	571.0190218563712	0.0	700.154520909528	707.953020633076	0.0	703.4219641296883	808.5648069315201	0.0
325	10.8584686774942	535.1420679733461	852.2721648067345	0.0	476.4187829742504	857.7182343182641	0.0	477.5715482552793	1069.0216221108897	0.0	487.35743935190254	1297.6978880390952	0.0	497.50529799964966	1373.1611506008408	0.0	463.5068611024451	1367.087707951884	0.0	493.81130984595103	1330.0365274427172	0.0	590.752977649279	858.8494831863014	0.0	582.4671708680454	1049.1759823179673	0.0	579.2105324726373	1256.6636019393966	0.0	565.6945410216318	1336.1927568789079	0.0	594.5596633659901	1327.5861138990317	0.0	574.1416552240514	1287.3393175560682	0.0	555.1439030090954	543.9089475254411	0.0	566.1883223579999	408.10870027295334	0.0	557.7472164669762	525.5909241768674	0.0	449.845922727226	565.3462856991705	0.0	407.23741346874704	700.0337478766259	0.0	364.85390320619257	814.8350561070372	0.0	660.011068481789	571.0411783343238	0.0	700.1291566597065	710.9339612700138	0.0	703.2667220153517	808.8465736664289	0.0
326	10.89187935034803	534.6845503406645	854.388139858669	0.0	475.9257741846161	861.4643143701057	0.0	478.8892536256809	1073.7931323730847	0.0	488.98093173958597	1302.838143852123	0.0	499.9834779485271	1378.4645630107157	0.0	465.49066570212375	1371.9438582325895	0.0	494.5941963799571	1335.3112157606502	0.0	590.7025062014558	862.1421830818559	0.0	582.5013278605027	1049.4828349442107	0.0	579.030727790875	1256.5808306700933	0.0	564.5177605094227	1337.4702704049012	0.0	593.9669902905708	1329.0086730110065	0.0	573.398456864922	1288.442382039327	0.0	553.4917198898283	541.8708713717646	0.0	565.3142302837113	406.4778857279885	0.0	556.2129825433823	523.5033933830142	0.0	447.37629336542335	564.4238088009082	0.0	405.9313254015902	697.1521523295366	0.0	364.9626248270588	814.9234446494953	0.0	657.7793992744831	569.4000464522255	0.0	699.2918685604686	714.3969169882272	0.0	701.9210687325763	809.6164921981089	0.0
327	10.925290023201857	534.1715650224778	854.9792307465794	0.0	475.42938958119873	861.5986734459481	0.0	479.71895253803564	1076.1029598902892	0.0	490.65100291189634	1306.0095345804193	0.0	502.03828566049566	1384.8656594402228	0.0	466.73899004471633	1378.505841175882	0.0	495.390710495912	1338.28477823308	0.0	590.6152733597811	862.3605563696143	0.0	582.0625048185906	1049.4341732246476	0.0	578.5388387711522	1255.8524026316338	0.0	566.6019365481341	1338.45706751797	0.0	595.3566552968865	1328.653990762748	0.0	570.8712475612126	1289.0342822487032	0.0	551.2986884279479	541.0257627482838	0.0	563.621687430571	404.6051686067788	0.0	554.6142250736661	520.4741827593301	0.0	444.2038953798853	563.6212618251022	0.0	405.1896332286118	694.2708018532087	0.0	365.02557930538495	814.1414097469108	0.0	656.056501841145	566.5769416933566	0.0	697.148131479874	715.4453943101297	0.0	700.2556575922468	811.1213788045541	0.0
328	10.958700696055685	534.2720576438226	854.2571798245181	0.0	475.1540734165637	860.3074260275276	0.0	480.16665154969	1076.6624476113484	0.0	491.89798083837724	1307.629204950343	0.0	503.8275593763925	1390.3779957220138	0.0	467.9672806454039	1384.6883077293019	0.0	496.27172110343884	1339.1910837694752	0.0	590.4423165789863	861.4927322565555	0.0	581.4932470166873	1048.8791787035123	0.0	578.133948206716	1254.9454647641858	0.0	569.4759174385474	1339.7972198677803	0.0	598.0251329910675	1328.499324345265	0.0	567.9236607765116	1288.6895474176793	0.0	548.672805947964	540.3073502395273	0.0	560.8253347747924	402.77273261664743	0.0	552.3469714413353	518.4776921256375	0.0	441.2709473342125	563.2637677821477	0.0	404.2407811908788	692.8932328413372	0.0	364.88139419649116	812.7643299722085	0.0	654.9035870109198	564.7718090780721	0.0	694.9049616655864	713.2973538955771	0.0	700.7323980150079	814.2271525790181	0.0
329	10.992111368909514	534.6376372390687	853.7235193108143	0.0	474.7186678681524	860.2940512934164	0.0	480.24324162777964	1077.0922023629123	0.0	491.9919216332391	1308.7619258041193	0.0	504.6127049022653	1393.4708131517684	0.0	468.66932537946155	1388.026656635251	0.0	496.96106464242786	1339.7014861195391	0.0	590.1270929794944	862.6614868587585	0.0	581.2445492397189	1048.0504136811583	0.0	577.9950443033283	1253.6582446154146	0.0	570.0892847142945	1341.3000290120858	0.0	599.9479469619525	1329.6973108250486	0.0	567.0045573780192	1286.650016194379	0.0	545.8877060435805	538.3029721540383	0.0	557.1525064779214	401.15691343297357	0.0	549.0145564205253	517.7703783522893	0.0	438.9113372789524	563.303375695856	0.0	402.28680354612067	692.7830697003193	0.0	364.32565881755767	811.7936027658992	0.0	653.8826394185596	564.7723754457616	0.0	694.0857506708451	710.4877630338298	0.0	702.8240738385045	808.167336047247	0.0
330	11.025522041763342	534.0102754366939	854.1730881166998	0.0	473.70013326815894	861.238179332984	0.0	479.38996686478555	1077.139292180768	0.0	491.368055812608	1310.3284038293891	0.0	504.252547931501	1394.6009369959513	0.0	468.69250901686775	1388.8239441501614	0.0	497.2446591698748	1341.5777399015533	0.0	589.7533917287267	864.6653583080783	0.0	581.140937520942	1047.352559420531	0.0	578.0290934807495	1251.8091078230707	0.0	569.3153287818095	1341.7628891023985	0.0	600.2793151543347	1330.695611227286	0.0	567.7553797926653	1282.2959994250382	0.0	543.0995125519786	535.6320539015657	0.0	553.818772852525	399.6546022197858	0.0	545.5526336352322	517.8405517752968	0.0	436.26735613494867	563.3624878306324	0.0	399.9275639958463	692.4632512754797	0.0	363.1876580178306	810.6906108725151	0.0	652.2928882142844	564.5029242121536	0.0	694.245831753967	709.0611585386063	0.0	702.9791780177661	785.3993309755369	0.0
331	11.05893271461717	532.1744114138558	854.8857873773286	0.0	472.5886825003596	861.962770412551	0.0	477.8843035176763	1076.2856266389213	0.0	490.997395090372	1312.3035955900245	0.0	503.7905718598551	1394.7184887579226	0.0	468.67626193738624	1388.641692379071	0.0	497.2229036306868	1344.4211888148802	0.0	589.2166475901364	864.7947013014743	0.0	581.0993638506387	1047.1203987415274	0.0	578.0032458642064	1250.540946043975	0.0	569.4761342541817	1341.0563300688382	0.0	599.8687097276041	1330.5037158931748	0.0	568.0070114680584	1276.8801617601102	0.0	540.2140409943229	533.2795484974799	0.0	551.4013125142276	397.6367106444311	0.0	543.2861454818672	517.7728784414609	0.0	432.7875458654746	562.9181608969216	0.0	398.0111299045727	690.9011876042979	0.0	361.8296556363004	808.8370449063008	0.0	649.6702365597654	562.4033399361525	0.0	694.2755683440544	708.7000554024288	0.0	700.2696026481199	757.4796158956474	0.0
332	11.092343387470999	530.5062541678574	854.735771133179	0.0	472.12811555651365	862.4210627583324	0.0	477.2901489728872	1075.3335731126365	0.0	491.2134259484157	1313.8605788202672	0.0	503.9399376376183	1394.3471759568606	0.0	468.9220288562641	1388.209222020701	0.0	497.11798996814207	1346.3738363065388	0.0	588.4004036305705	863.6060564257981	0.0	581.2570386290449	1047.5385480562531	0.0	577.6705507260066	1250.7662398765083	0.0	570.4475243220216	1340.5264409243518	0.0	599.8224787310683	1330.2391878933595	0.0	567.1854874434638	1273.7009232487749	0.0	537.7711712376677	530.9885882951576	0.0	548.7359395340943	394.6196468728714	0.0	541.4909166725566	515.1867524193317	0.0	429.3641761614361	561.4491598525212	0.0	396.3140572825707	688.3496321439529	0.0	360.7274144062462	807.286617742267	0.0	646.6745269566276	559.8253778060302	0.0	693.9233421420339	708.3399851147282	0.0	697.0498324278385	732.0007566160631	0.0
